<svg width="256" height="256" viewBox="0 0 256 256" fill="none" xmlns="http://www.w3.org/2000/svg">
<g clip-path="url(#clip0_35_2)">
<path d="M196 0H60C26.8629 0 0 26.8629 0 60V196C0 229.137 26.8629 256 60 256H196C229.137 256 256 229.137 256 196V60C256 26.8629 229.137 0 196 0Z" fill="white"/>
<path d="M162.283 155.812C160.098 154.571 157.65 153.926 155.164 153.937C149.693 153.937 145.897 157.922 145.897 163.301C145.897 168.517 149.53 172.673 155.164 172.673C157.648 172.679 160.094 172.038 162.283 170.81V180.232C159.784 181.034 157.186 181.454 154.572 181.478C145.053 181.478 136.698 174.609 136.698 163.296C136.698 152.816 144.257 145.128 154.572 145.128C157.189 145.135 159.789 145.56 162.283 146.388V155.812ZM73.9528 155.812C71.7724 154.569 69.3268 153.924 66.8441 153.937C61.3625 153.937 57.5696 157.922 57.5696 163.301C57.5696 168.517 61.2045 172.673 66.8441 172.673C69.3249 172.681 71.7684 172.041 73.9528 170.81V180.232C71.4507 181.037 68.8502 181.457 66.2328 181.478C56.7225 181.478 48.3781 174.609 48.3781 163.296C48.3781 152.816 55.9373 145.128 66.2356 145.128C68.8543 145.132 71.4569 145.557 73.9528 146.388V155.812ZM188.904 154.069C187.746 154.058 186.597 154.289 185.526 154.75C184.455 155.211 183.483 155.892 182.667 156.752C181.852 157.613 181.209 158.636 180.778 159.76C180.346 160.885 180.134 162.089 180.154 163.301C180.133 164.514 180.344 165.719 180.775 166.845C181.207 167.97 181.849 168.994 182.665 169.856C183.48 170.717 184.453 171.399 185.524 171.86C186.596 172.321 187.745 172.553 188.904 172.541C190.062 172.552 191.212 172.321 192.283 171.859C193.355 171.398 194.328 170.717 195.144 169.855C195.96 168.994 196.603 167.97 197.034 166.845C197.466 165.719 197.678 164.514 197.658 163.301C197.677 162.089 197.465 160.885 197.032 159.76C196.6 158.636 195.957 157.613 195.141 156.753C194.325 155.892 193.353 155.212 192.282 154.751C191.21 154.29 190.062 154.058 188.904 154.069ZM206.625 163.301C206.625 173.344 199.218 181.481 188.906 181.481C178.595 181.481 171.194 173.344 171.194 163.298C171.194 153.275 178.592 145.13 188.904 145.13C199.216 145.13 206.625 153.274 206.625 163.301V163.301ZM126.14 153.732C126.014 153.691 122.451 152.66 119.524 152.66C116.133 152.66 114.289 153.85 114.289 155.537C114.289 157.675 116.777 158.421 118.168 158.881L120.503 159.659C125.998 161.487 128.499 165.425 128.499 169.701C128.499 178.52 121.09 181.484 114.613 181.484C111.548 181.453 108.491 181.132 105.481 180.524V172.445C106.226 172.641 109.775 173.753 113.472 173.753C117.683 173.753 119.618 172.462 119.618 170.475C119.618 168.696 117.943 167.669 115.844 166.979C115.335 166.799 114.563 166.547 114.037 166.367C109.325 164.807 105.395 161.906 105.395 156.097C105.395 149.532 110.092 145.123 117.892 145.123C120.673 145.163 123.441 145.537 126.14 146.24V153.732V153.732Z" fill="#2B89F8"/>
<path d="M94.0479 180.859H85.5856V145.752H94.0479V180.859Z" fill="#2B89F8"/>
<path d="M39.4032 108.026C39.3999 106.862 38.9558 105.748 38.1684 104.926C37.381 104.105 36.3145 103.645 35.203 103.646C34.0916 103.644 33.0251 104.104 32.2372 104.925C31.4493 105.746 31.0044 106.859 31 108.023V117.241C31.0276 118.388 31.4825 119.479 32.2675 120.28C33.0525 121.081 34.1055 121.529 35.2018 121.529C36.2981 121.529 37.3511 121.081 38.1361 120.28C38.9211 119.479 39.3759 118.388 39.4036 117.241L39.4032 108.026ZM62.4798 95.9338C62.4798 95.3562 62.3711 94.7841 62.16 94.2505C61.9488 93.7169 61.6393 93.2322 61.2491 92.8238C60.8589 92.4154 60.3957 92.0913 59.8859 91.8703C59.3762 91.6493 58.8298 91.5357 58.278 91.5358C57.7263 91.5357 57.1799 91.6493 56.6701 91.8703C56.1603 92.0913 55.6971 92.4154 55.3069 92.8238C54.9168 93.2322 54.6073 93.7169 54.3961 94.2505C54.1849 94.7841 54.0762 95.3562 54.0762 95.9338V117.242C54.0762 118.409 54.5189 119.528 55.3069 120.353C56.0949 121.177 57.1636 121.641 58.278 121.641C59.3924 121.641 60.4611 121.177 61.2491 120.353C62.0371 119.528 62.4798 118.409 62.4798 117.242V95.9313V95.9338ZM85.5592 79.3842C85.556 78.2204 85.1119 77.1054 84.3245 76.2837C83.537 75.4621 82.4705 75.0009 81.3586 75.0012C80.2464 75.0003 79.1793 75.4612 78.3914 76.2829C77.6034 77.1046 77.159 78.22 77.1557 79.3842V126C77.1835 127.147 77.6384 128.238 78.4234 129.039C79.2083 129.84 80.2612 130.288 81.3574 130.288C82.4537 130.288 83.5065 129.84 84.2915 129.039C85.0764 128.238 85.5314 127.147 85.5592 126V79.3842ZM108.636 95.9338C108.636 95.356 108.528 94.7839 108.317 94.2499C108.106 93.716 107.797 93.2307 107.407 92.8219C107.017 92.4132 106.554 92.0888 106.044 91.8675C105.534 91.6462 104.988 91.5321 104.436 91.5319C103.884 91.5318 103.338 91.6457 102.828 91.8667C102.318 92.0877 101.855 92.4115 101.465 92.8199C101.074 93.2283 100.765 93.7133 100.554 94.2469C100.343 94.7805 100.234 95.3523 100.234 95.9299V117.239C100.234 118.405 100.677 119.524 101.465 120.349C102.253 121.174 103.321 121.637 104.436 121.637C105.55 121.637 106.619 121.174 107.407 120.349C108.195 119.524 108.637 118.405 108.637 117.239V95.9275L108.636 95.9338ZM131.688 108.026C131.689 106.865 131.249 105.752 130.466 104.931C129.683 104.11 128.62 103.647 127.512 103.646C126.401 103.645 125.335 104.105 124.548 104.926C123.76 105.746 123.316 106.86 123.312 108.023V117.241C123.312 118.403 123.753 119.519 124.538 120.341C125.324 121.163 126.389 121.625 127.5 121.625C128.611 121.625 129.676 121.163 130.462 120.341C131.247 119.519 131.688 118.403 131.688 117.241V108.026ZM154.776 95.9338C154.748 94.7902 154.294 93.7033 153.512 92.9047C152.73 92.1062 151.68 91.6592 150.587 91.6591C149.495 91.6592 148.445 92.1062 147.663 92.9047C146.88 93.7033 146.427 94.7902 146.399 95.9338V117.242C146.399 118.405 146.841 119.52 147.626 120.342C148.411 121.165 149.477 121.627 150.587 121.627C151.137 121.627 151.682 121.513 152.19 121.293C152.698 121.073 153.16 120.75 153.549 120.343C153.938 119.935 154.246 119.452 154.457 118.92C154.667 118.388 154.776 117.818 154.776 117.242V95.9313V95.9338ZM177.868 79.3842C177.868 78.2214 177.427 77.1064 176.641 76.2841C175.856 75.4619 174.791 75 173.68 75C172.569 75 171.504 75.4619 170.718 76.2841C169.933 77.1064 169.492 78.2214 169.492 79.3842V126C169.459 126.791 169.631 127.577 169.99 128.274C170.349 128.971 170.881 129.554 171.531 129.96C172.18 130.366 172.923 130.58 173.68 130.58C174.436 130.58 175.179 130.366 175.829 129.96C176.478 129.554 177.011 128.972 177.37 128.274C177.729 127.577 177.901 126.791 177.868 126V79.3842ZM200.956 95.9338C200.954 95.3536 200.843 94.7794 200.629 94.2442C200.415 93.7091 200.102 93.2235 199.708 92.8156C199.313 92.4077 198.846 92.0855 198.332 91.8675C197.819 91.6495 197.269 91.54 196.715 91.5453C195.604 91.546 194.539 92.0083 193.754 92.8307C192.969 93.653 192.528 94.7682 192.528 95.9309V117.242C192.527 117.819 192.634 118.39 192.844 118.922C193.054 119.455 193.363 119.939 193.751 120.347C194.14 120.755 194.602 121.079 195.111 121.3C195.619 121.521 196.164 121.635 196.715 121.636C197.27 121.641 197.82 121.532 198.334 121.314C198.848 121.096 199.316 120.773 199.71 120.364C200.104 119.956 200.417 119.47 200.631 118.934C200.845 118.398 200.955 117.823 200.956 117.242V95.9309V95.9338ZM224 108.026C224 106.862 223.558 105.746 222.772 104.923C221.986 104.099 220.92 103.637 219.808 103.637C218.696 103.637 217.63 104.099 216.843 104.923C216.057 105.746 215.616 106.862 215.616 108.026V117.241C215.615 117.818 215.723 118.389 215.933 118.923C216.143 119.456 216.452 119.94 216.841 120.349C217.231 120.757 217.693 121.081 218.202 121.302C218.711 121.523 219.257 121.637 219.808 121.638C220.359 121.637 220.904 121.523 221.413 121.302C221.921 121.08 222.384 120.756 222.773 120.348C223.162 119.94 223.47 119.455 223.68 118.922C223.89 118.389 223.998 117.818 223.997 117.241V108.026L224 108.026Z" fill="#2B89F8"/>
</g>
<defs>
<clipPath id="clip0_35_2">
<rect width="256" height="256" fill="white"/>
</clipPath>
</defs>
</svg>
