<svg width="106" height="40" viewBox="0 0 106 40" fill="none" xmlns="http://www.w3.org/2000/svg">
<g filter="url(#filter0_d_18_381)">
<path d="M97 0H35V32H97C99.7614 32 102 29.7614 102 27V5C102 2.23858 99.7614 0 97 0Z" fill="#E8493D"/>
<path d="M9 0.5H34.5V31.5H9C6.51472 31.5 4.5 29.4853 4.5 27V5C4.5 2.51472 6.51472 0.5 9 0.5Z" fill="white" stroke="#151A1E"/>
<path d="M29 7H11V25H29V7Z" fill="#ECEFF1"/>
<path d="M20 17.8932L29 25.0002V10.9692L20 17.8932Z" fill="#CFD8DC"/>
<path d="M29.75 7H29L20 14.107L11 7H10.25C9.008 7 8 8.008 8 9.25V22.75C8 23.992 9.008 25 10.25 25H11V10.969L20 17.8915L29 10.9675V25H29.75C30.992 25 32 23.992 32 22.75V9.25C32 8.008 30.992 7 29.75 7Z" fill="#F44336"/>
<path d="M57.4613 21.2969C56.4359 21.8877 55.1615 22.1831 53.638 22.1831C51.9486 22.1831 50.6156 21.7168 49.639 20.7842C48.6673 19.8467 48.1815 18.5576 48.1815 16.917C48.1815 15.2666 48.7137 13.9214 49.7782 12.8813C50.8426 11.8413 52.2587 11.3213 54.0262 11.3213C55.1395 11.3213 56.121 11.4751 56.9706 11.7827V14.002C56.16 13.5332 55.1688 13.2988 53.9969 13.2988C53.0155 13.2988 52.2147 13.6187 51.5946 14.2583C50.9794 14.8931 50.6717 15.7427 50.6717 16.8071C50.6717 17.8862 50.9476 18.7212 51.4994 19.312C52.056 19.9028 52.8055 20.1982 53.7479 20.1982C54.3143 20.1982 54.7635 20.1177 55.0956 19.9565V17.9058H52.9935V16.0161H57.4613V21.2969ZM71.6305 22H69.3234V17.7227C69.3234 16.6338 68.923 16.0894 68.1222 16.0894C67.7414 16.0894 67.4313 16.2529 67.1921 16.5801C66.9528 16.9072 66.8332 17.3149 66.8332 17.8032V22H64.5187V17.6787C64.5187 16.6191 64.1257 16.0894 63.3395 16.0894C62.944 16.0894 62.6266 16.2456 62.3874 16.5581C62.153 16.8706 62.0358 17.2954 62.0358 17.8325V22H59.7214V14.5H62.0358V15.6719H62.0651C62.3044 15.2715 62.6388 14.9468 63.0685 14.6978C63.5031 14.4438 63.9767 14.3169 64.4894 14.3169C65.549 14.3169 66.2741 14.7832 66.6647 15.7158C67.236 14.7832 68.0759 14.3169 69.1843 14.3169C70.8151 14.3169 71.6305 15.3228 71.6305 17.3345V22ZM79.8818 22H77.6919V20.9233H77.6626C77.1597 21.7632 76.415 22.1831 75.4287 22.1831C74.7012 22.1831 74.1274 21.978 73.7075 21.5679C73.2925 21.1528 73.085 20.6011 73.085 19.9126C73.085 18.4575 73.9468 17.6177 75.6704 17.3931L77.7065 17.1221C77.7065 16.3018 77.2622 15.8916 76.3735 15.8916C75.48 15.8916 74.6304 16.1577 73.8247 16.6899V14.9468C74.147 14.7808 74.5864 14.6343 75.1431 14.5073C75.7046 14.3804 76.2148 14.3169 76.6738 14.3169C78.8125 14.3169 79.8818 15.3838 79.8818 17.5176V22ZM77.7065 18.9531V18.4478L76.3442 18.6235C75.5923 18.7212 75.2163 19.0605 75.2163 19.6416C75.2163 19.9053 75.3066 20.1226 75.4873 20.2935C75.6729 20.4595 75.9219 20.5425 76.2344 20.5425C76.6689 20.5425 77.0229 20.3936 77.2964 20.0957C77.5698 19.793 77.7065 19.4121 77.7065 18.9531ZM83.0648 13.3135C82.6741 13.3135 82.3543 13.1987 82.1053 12.9692C81.8563 12.7349 81.7318 12.4492 81.7318 12.1123C81.7318 11.7656 81.8563 11.4824 82.1053 11.2627C82.3543 11.043 82.6741 10.9331 83.0648 10.9331C83.4603 10.9331 83.7801 11.043 84.0242 11.2627C84.2733 11.4824 84.3978 11.7656 84.3978 12.1123C84.3978 12.4639 84.2733 12.752 84.0242 12.9766C83.7801 13.2012 83.4603 13.3135 83.0648 13.3135ZM84.2073 22H81.8929V14.5H84.2073V22ZM88.65 22H86.3356V10.8965H88.65V22Z" fill="white"/>
<path d="M97 0H9C6.23858 0 4 2.23858 4 5V27C4 29.7614 6.23857 32 9 32H97C99.7614 32 102 29.7614 102 27V5C102 2.23858 99.7614 0 97 0Z" fill="url(#paint0_linear_18_381)"/>
</g>
<defs>
<filter id="filter0_d_18_381" x="0" y="0" width="106" height="40" filterUnits="userSpaceOnUse" color-interpolation-filters="sRGB">
<feFlood flood-opacity="0" result="BackgroundImageFix"/>
<feColorMatrix in="SourceAlpha" type="matrix" values="0 0 0 0 0 0 0 0 0 0 0 0 0 0 0 0 0 0 127 0" result="hardAlpha"/>
<feOffset dy="4"/>
<feGaussianBlur stdDeviation="2"/>
<feComposite in2="hardAlpha" operator="out"/>
<feColorMatrix type="matrix" values="0 0 0 0 0 0 0 0 0 0 0 0 0 0 0 0 0 0 0.25 0"/>
<feBlend mode="normal" in2="BackgroundImageFix" result="effect1_dropShadow_18_381"/>
<feBlend mode="normal" in="SourceGraphic" in2="effect1_dropShadow_18_381" result="shape"/>
</filter>
<linearGradient id="paint0_linear_18_381" x1="4" y1="0" x2="4" y2="32" gradientUnits="userSpaceOnUse">
<stop stop-color="#BBBBBB" stop-opacity="0.1"/>
<stop offset="1" stop-opacity="0.1"/>
</linearGradient>
</defs>
</svg>
