<svg width="129" height="40" viewBox="0 0 129 40" fill="none" xmlns="http://www.w3.org/2000/svg">
<g filter="url(#filter0_d_11_378)">
<path d="M120 0H35V32H120C122.761 32 125 29.7614 125 27V5C125 2.23858 122.761 0 120 0Z" fill="#2BC47B"/>
<path d="M35 0H9C6.23858 0 4 2.23858 4 5V27C4 29.7614 6.23858 32 9 32H35V0Z" fill="url(#paint0_linear_11_378)"/>
<path d="M31 5H9V27H31V5Z" fill="black"/>
<path d="M19.338 22.8748H11.088V24.2498H19.338V22.8748Z" fill="white"/>
<path d="M10.9861 7.90234H14.7037C16.8935 7.90234 18.2176 9.17549 18.2176 11.0598V11.1107C18.2176 13.1986 16.5879 14.319 14.5509 14.319H13.0231V17.0181H11.037V7.90234H10.9861ZM14.6018 12.4857C15.6203 12.4857 16.1805 11.8746 16.1805 11.1107V11.0598C16.1805 10.1431 15.5694 9.68475 14.5509 9.68475H13.0231V12.4857H14.6018Z" fill="white"/>
<path d="M19.0325 12.4864C19.0325 9.88913 20.9677 7.75024 23.7686 7.75024C25.5001 7.75024 26.5186 8.31043 27.3844 9.17617L26.1112 10.653C25.3983 9.99099 24.6853 9.6345 23.7686 9.6345C22.2409 9.6345 21.1205 10.9077 21.1205 12.4864V12.4354C21.1205 14.0141 22.1899 15.2873 23.7686 15.2873C24.7872 15.2873 25.4492 14.8799 26.1622 14.2178L27.4353 15.491C26.5186 16.5095 25.4492 17.1206 23.7177 17.1206C21.0186 17.1715 19.0325 15.0836 19.0325 12.4864Z" fill="white"/>
<path d="M51.0054 17.3818V21H48.6397V10.4971H52.3457C54.9922 10.4971 56.3155 11.6128 56.3155 13.8442C56.3155 14.8989 55.9346 15.7534 55.1729 16.4077C54.4161 17.0571 53.4029 17.3818 52.1333 17.3818H51.0054ZM51.0054 12.3135V15.5874H51.9356C53.1954 15.5874 53.8252 15.0356 53.8252 13.9321C53.8252 12.853 53.1954 12.3135 51.9356 12.3135H51.0054ZM65.2113 13.5L62.1644 21.6006C61.432 23.5488 60.3285 24.5229 58.8539 24.5229C58.2923 24.5229 57.8309 24.4595 57.4696 24.3325V22.4868C57.7772 22.6675 58.1117 22.7578 58.473 22.7578C59.0687 22.7578 59.4837 22.4771 59.7181 21.9155L60.1136 20.9854L57.0668 13.5H59.6302L61.0292 18.063C61.1171 18.3462 61.1854 18.6807 61.2342 19.0664H61.2635C61.3075 18.7832 61.388 18.4536 61.5052 18.0776L62.9188 13.5H65.2113ZM74.3415 20.6265C73.5749 20.9976 72.5739 21.1831 71.3386 21.1831C69.7272 21.1831 68.4601 20.7095 67.5373 19.7622C66.6144 18.8149 66.153 17.5527 66.153 15.9756C66.153 14.2959 66.6706 12.9336 67.7057 11.8887C68.7458 10.8438 70.0934 10.3213 71.7487 10.3213C72.7741 10.3213 73.6384 10.4507 74.3415 10.7095V12.9873C73.6384 12.5674 72.8376 12.3574 71.9391 12.3574C70.9528 12.3574 70.1569 12.6675 69.5514 13.2876C68.946 13.9077 68.6432 14.7476 68.6432 15.8071C68.6432 16.8228 68.9289 17.6333 69.5002 18.2388C70.0715 18.8394 70.8405 19.1396 71.8073 19.1396C72.7302 19.1396 73.5749 18.915 74.3415 18.4658V20.6265ZM83.5889 21H81.2817V16.7373C81.2817 15.6387 80.8813 15.0894 80.0806 15.0894C79.6704 15.0894 79.3384 15.2432 79.0845 15.5508C78.8306 15.8584 78.7036 16.249 78.7036 16.7227V21H76.3892V9.89648H78.7036V14.6133H78.7329C79.2993 13.749 80.0684 13.3169 81.04 13.3169C82.7393 13.3169 83.5889 14.3423 83.5889 16.3931V21ZM91.8475 21H89.6575V19.9233H89.6282C89.1253 20.7632 88.3807 21.1831 87.3944 21.1831C86.6668 21.1831 86.0931 20.978 85.6732 20.5679C85.2581 20.1528 85.0506 19.6011 85.0506 18.9126C85.0506 17.4575 85.9124 16.6177 87.6361 16.3931L89.6722 16.1221C89.6722 15.3018 89.2279 14.8916 88.3392 14.8916C87.4456 14.8916 86.596 15.1577 85.7904 15.6899V13.9468C86.1126 13.7808 86.5521 13.6343 87.1087 13.5073C87.6702 13.3804 88.1805 13.3169 88.6395 13.3169C90.7781 13.3169 91.8475 14.3838 91.8475 16.5176V21ZM89.6722 17.9531V17.4478L88.3099 17.6235C87.5579 17.7212 87.182 18.0605 87.182 18.6416C87.182 18.9053 87.2723 19.1226 87.4529 19.2935C87.6385 19.4595 87.8875 19.5425 88.2 19.5425C88.6346 19.5425 88.9886 19.3936 89.262 19.0957C89.5355 18.793 89.6722 18.4121 89.6722 17.9531ZM98.7511 15.5874C98.4728 15.436 98.1481 15.3604 97.777 15.3604C97.2741 15.3604 96.881 15.5459 96.5978 15.917C96.3146 16.2832 96.173 16.7837 96.173 17.4185V21H93.8585V13.5H96.173V14.8916H96.2023C96.5685 13.876 97.2277 13.3682 98.1798 13.3682C98.424 13.3682 98.6144 13.3975 98.7511 13.4561V15.5874ZM111.968 21H109.661V16.7227C109.661 15.6338 109.261 15.0894 108.46 15.0894C108.079 15.0894 107.769 15.2529 107.53 15.5801C107.29 15.9072 107.171 16.3149 107.171 16.8032V21H104.856V16.6787C104.856 15.6191 104.463 15.0894 103.677 15.0894C103.282 15.0894 102.964 15.2456 102.725 15.5581C102.491 15.8706 102.373 16.2954 102.373 16.8325V21H100.059V13.5H102.373V14.6719H102.403C102.642 14.2715 102.977 13.9468 103.406 13.6978C103.841 13.4438 104.314 13.3169 104.827 13.3169C105.887 13.3169 106.612 13.7832 107.002 14.7158C107.574 13.7832 108.414 13.3169 109.522 13.3169C111.153 13.3169 111.968 14.3228 111.968 16.3345V21Z" fill="white"/>
<path d="M120 0H9C6.23858 0 4 2.23858 4 5V27C4 29.7614 6.23857 32 9 32H120C122.761 32 125 29.7614 125 27V5C125 2.23858 122.761 0 120 0Z" fill="url(#paint1_linear_11_378)"/>
</g>
<defs>
<filter id="filter0_d_11_378" x="0" y="0" width="129" height="40" filterUnits="userSpaceOnUse" color-interpolation-filters="sRGB">
<feFlood flood-opacity="0" result="BackgroundImageFix"/>
<feColorMatrix in="SourceAlpha" type="matrix" values="0 0 0 0 0 0 0 0 0 0 0 0 0 0 0 0 0 0 127 0" result="hardAlpha"/>
<feOffset dy="4"/>
<feGaussianBlur stdDeviation="2"/>
<feComposite in2="hardAlpha" operator="out"/>
<feColorMatrix type="matrix" values="0 0 0 0 0 0 0 0 0 0 0 0 0 0 0 0 0 0 0.25 0"/>
<feBlend mode="normal" in2="BackgroundImageFix" result="effect1_dropShadow_11_378"/>
<feBlend mode="normal" in="SourceGraphic" in2="effect1_dropShadow_11_378" result="shape"/>
</filter>
<linearGradient id="paint0_linear_11_378" x1="13.5142" y1="37.1131" x2="20.1236" y2="5.45538" gradientUnits="userSpaceOnUse">
<stop stop-color="#21D789"/>
<stop offset="0.1638" stop-color="#24D788"/>
<stop offset="0.3047" stop-color="#2FD886"/>
<stop offset="0.4371" stop-color="#41DA82"/>
<stop offset="0.5644" stop-color="#5ADC7D"/>
<stop offset="0.6881" stop-color="#7AE077"/>
<stop offset="0.809" stop-color="#A1E36E"/>
<stop offset="0.9254" stop-color="#CFE865"/>
<stop offset="1" stop-color="#F1EB5E"/>
</linearGradient>
<linearGradient id="paint1_linear_11_378" x1="4" y1="0" x2="4" y2="32" gradientUnits="userSpaceOnUse">
<stop stop-color="#BBBBBB" stop-opacity="0.1"/>
<stop offset="1" stop-opacity="0.1"/>
</linearGradient>
</defs>
</svg>
