<svg width="126" height="40" viewBox="0 0 126 40" fill="none" xmlns="http://www.w3.org/2000/svg">
<g filter="url(#filter0_d_2_527)">
<path d="M117 0H35V32H117C119.761 32 122 29.7614 122 27V5C122 2.23858 119.761 0 117 0Z" fill="#006AD5"/>
<path d="M35 0H9C6.23858 0 4 2.23858 4 5V27C4 29.7614 6.23858 32 9 32H35V0Z" fill="#004880"/>
<path d="M13.9246 26H9.3634V11.3117H13.9246V26ZM11.6415 9.30811C10.183 9.30811 9 8.10005 9 6.64153C9 5.94095 9.2783 5.26907 9.77369 4.77369C10.2691 4.2783 10.941 4 11.6415 4C12.3421 4 13.014 4.2783 13.5094 4.77369C14.0048 5.26907 14.2831 5.94095 14.2831 6.64153C14.2831 8.10005 13.0996 9.30811 11.6415 9.30811ZM30.9956 26H26.4442V18.8498C26.4442 17.1458 26.4099 14.9605 24.0728 14.9605C21.7014 14.9605 21.338 16.8118 21.338 18.7271V26H16.7817V11.3117H21.1563V13.3153H21.2201C21.829 12.1613 23.3165 10.9434 25.5357 10.9434C30.1519 10.9434 31.0005 13.9832 31.0005 17.9315V26H30.9956Z" fill="white"/>
<path d="M54.8427 22H48.5878V11.4971H50.9535V20.0811H54.8427V22ZM57.6521 13.3135C57.2614 13.3135 56.9416 13.1987 56.6926 12.9692C56.4436 12.7349 56.319 12.4492 56.319 12.1123C56.319 11.7656 56.4436 11.4824 56.6926 11.2627C56.9416 11.043 57.2614 10.9331 57.6521 10.9331C58.0476 10.9331 58.3674 11.043 58.6115 11.2627C58.8605 11.4824 58.9851 11.7656 58.9851 12.1123C58.9851 12.4639 58.8605 12.752 58.6115 12.9766C58.3674 13.2012 58.0476 13.3135 57.6521 13.3135ZM58.7946 22H56.4802V14.5H58.7946V22ZM68.1665 22H65.8594V17.8325C65.8594 16.6704 65.4444 16.0894 64.6143 16.0894C64.2139 16.0894 63.8843 16.2432 63.6255 16.5508C63.3667 16.8584 63.2373 17.249 63.2373 17.7227V22H60.9229V14.5H63.2373V15.6865H63.2666C63.8184 14.7734 64.6216 14.3169 65.6763 14.3169C67.3364 14.3169 68.1665 15.3472 68.1665 17.4077V22ZM77.6996 22H74.9237L72.5287 18.2793H72.4994V22H70.1849V10.8965H72.4994V17.9644H72.5287L74.7625 14.5H77.5091L74.8211 18.0229L77.6996 22ZM85.277 18.9092H80.3844C80.4626 19.998 81.1486 20.5425 82.4425 20.5425C83.2677 20.5425 83.9928 20.3472 84.6178 19.9565V21.6265C83.9245 21.9976 83.0236 22.1831 81.9152 22.1831C80.7043 22.1831 79.7643 21.8486 79.0954 21.1797C78.4264 20.5059 78.092 19.5684 78.092 18.3672C78.092 17.1221 78.4533 16.1357 79.1759 15.4082C79.8986 14.6807 80.7873 14.3169 81.842 14.3169C82.9357 14.3169 83.7804 14.6416 84.3761 15.291C84.9767 15.9404 85.277 16.8218 85.277 17.9351V18.9092ZM83.131 17.4883C83.131 16.4141 82.6964 15.877 81.8273 15.877C81.4562 15.877 81.1339 16.0308 80.8605 16.3384C80.592 16.646 80.4284 17.0293 80.3698 17.4883H83.131ZM94.1728 22H91.8584V20.9673H91.8291C91.3017 21.7778 90.5278 22.1831 89.5073 22.1831C88.5698 22.1831 87.8154 21.8535 87.2441 21.1943C86.6728 20.5303 86.3872 19.605 86.3872 18.4185C86.3872 17.1782 86.7021 16.1846 87.332 15.4375C87.9619 14.6904 88.7871 14.3169 89.8076 14.3169C90.7744 14.3169 91.4482 14.6636 91.8291 15.3569H91.8584V10.8965H94.1728V22ZM91.9023 18.3525V17.7886C91.9023 17.3003 91.7607 16.895 91.4775 16.5728C91.1943 16.2505 90.8257 16.0894 90.3716 16.0894C89.8589 16.0894 89.4585 16.292 89.1704 16.6973C88.8823 17.0977 88.7383 17.6494 88.7383 18.3525C88.7383 19.0117 88.8774 19.5195 89.1557 19.876C89.4341 20.2324 89.8198 20.4106 90.313 20.4106C90.7817 20.4106 91.1626 20.2227 91.4556 19.8467C91.7534 19.4707 91.9023 18.9727 91.9023 18.3525ZM99.1575 22H96.7918V11.4971H99.1575V22ZM109.013 22H106.706V17.8325C106.706 16.6704 106.291 16.0894 105.461 16.0894C105.06 16.0894 104.731 16.2432 104.472 16.5508C104.213 16.8584 104.084 17.249 104.084 17.7227V22H101.769V14.5H104.084V15.6865H104.113C104.665 14.7734 105.468 14.3169 106.523 14.3169C108.183 14.3169 109.013 15.3472 109.013 17.4077V22Z" fill="white"/>
<path d="M117 0H9C6.23858 0 4 2.23858 4 5V27C4 29.7614 6.23858 32 9 32H117C119.761 32 122 29.7614 122 27V5C122 2.23858 119.761 0 117 0Z" fill="url(#paint0_linear_2_527)"/>
</g>
<defs>
<filter id="filter0_d_2_527" x="0" y="0" width="126" height="40" filterUnits="userSpaceOnUse" color-interpolation-filters="sRGB">
<feFlood flood-opacity="0" result="BackgroundImageFix"/>
<feColorMatrix in="SourceAlpha" type="matrix" values="0 0 0 0 0 0 0 0 0 0 0 0 0 0 0 0 0 0 127 0" result="hardAlpha"/>
<feOffset dy="4"/>
<feGaussianBlur stdDeviation="2"/>
<feComposite in2="hardAlpha" operator="out"/>
<feColorMatrix type="matrix" values="0 0 0 0 0 0 0 0 0 0 0 0 0 0 0 0 0 0 0.25 0"/>
<feBlend mode="normal" in2="BackgroundImageFix" result="effect1_dropShadow_2_527"/>
<feBlend mode="normal" in="SourceGraphic" in2="effect1_dropShadow_2_527" result="shape"/>
</filter>
<linearGradient id="paint0_linear_2_527" x1="4" y1="0" x2="4" y2="32" gradientUnits="userSpaceOnUse">
<stop stop-color="#BBBBBB" stop-opacity="0.1"/>
<stop offset="1" stop-opacity="0.1"/>
</linearGradient>
</defs>
</svg>
