<svg width="142" height="40" viewBox="0 0 142 40" fill="none" xmlns="http://www.w3.org/2000/svg">
<g filter="url(#filter0_d_14_1547)">
<path d="M133 0H35V32H133C135.761 32 138 29.7614 138 27V5C138 2.23858 135.761 0 133 0Z" fill="white"/>
<path d="M35.5 0.5H133C135.485 0.5 137.5 2.51472 137.5 5V27C137.5 29.4853 135.485 31.5 133 31.5H35.5V0.5Z" stroke="black" stroke-opacity="0.26"/>
<path d="M35 0H9C6.23858 0 4 2.23858 4 5V27C4 29.7614 6.23858 32 9 32H35V0Z" fill="#1067BD"/>
<path fill-rule="evenodd" clip-rule="evenodd" d="M12.3729 7.02991C11.9327 7.13429 11.6105 7.52524 11.4957 8.0944C11.4803 8.17054 11.2566 9.19389 10.9986 10.3685C10.7407 11.5432 10.3675 13.2428 10.1694 14.1455C9.50061 17.1925 8.9411 19.7317 8.48307 21.7985C8.01452 23.9125 7.94618 24.3454 8.03149 24.6595C8.09315 24.8866 8.34516 25.1563 8.58052 25.2471C8.75668 25.3151 9.2043 25.3184 18.1979 25.3184H27.6306L27.8113 25.2348C28.2099 25.0504 28.3688 24.7732 28.5442 23.956C28.5981 23.7047 28.8364 22.6181 29.0737 21.5414C29.3109 20.4646 29.6671 18.8451 29.8652 17.9423C30.0632 17.0396 30.4192 15.42 30.6562 14.3433C31.4533 10.7211 31.7992 9.14513 31.9003 8.6746C31.9556 8.41725 32.0005 8.09689 32 7.9627C31.9985 7.55624 31.8108 7.25994 31.4472 7.08995L31.2692 7.00678L21.8958 7.00061C16.4786 6.99705 12.4594 7.00943 12.3729 7.02991ZM12.3729 7.02991C11.9327 7.13429 11.6105 7.52524 11.4957 8.0944C11.4803 8.17054 11.2566 9.19389 10.9986 10.3685C10.7407 11.5432 10.3675 13.2428 10.1694 14.1455C9.50061 17.1925 8.9411 19.7317 8.48307 21.7985C8.01452 23.9125 7.94618 24.3454 8.03149 24.6595C8.09315 24.8866 8.34516 25.1563 8.58052 25.2471C8.75668 25.3151 9.2043 25.3184 18.1979 25.3184H27.6306L27.8113 25.2348C28.2099 25.0504 28.3688 24.7732 28.5442 23.956C28.5981 23.7047 28.8364 22.6181 29.0737 21.5414C29.3109 20.4646 29.6671 18.8451 29.8652 17.9423C30.0632 17.0396 30.4192 15.42 30.6562 14.3433C31.4533 10.7211 31.7992 9.14513 31.9003 8.6746C31.9556 8.41725 32.0005 8.09689 32 7.9627C31.9985 7.55624 31.8108 7.25994 31.4472 7.08995L31.2692 7.00678L21.8958 7.00061C16.4786 6.99705 12.4594 7.00943 12.3729 7.02991ZM16.9269 8.94536C17.1918 9.06868 17.5111 9.37566 18.5087 10.4661C18.936 10.9331 19.5792 11.6361 19.9382 12.0284C23.0771 15.4583 23.0044 15.3662 23.0021 15.9055C23.0012 16.1151 22.9792 16.2237 22.9114 16.3522C22.7089 16.7364 22.757 16.6981 19.3449 19.188C18.8337 19.561 18.104 20.095 17.7233 20.3746C14.3944 22.82 13.9931 23.1047 13.7372 23.2021C13.4714 23.3031 13.1307 23.3046 12.9126 23.2056C12.207 22.8851 12.0546 22.0491 12.5905 21.4387C12.7582 21.2477 12.9788 21.0813 15.6272 19.1488C16.1384 18.7758 16.8681 18.2419 17.2487 17.9624C17.6294 17.683 18.3057 17.1879 18.7516 16.8623C19.6889 16.1779 19.7687 16.114 19.8887 15.9514C20.0003 15.8002 20.0046 15.5794 19.8998 15.374C19.857 15.2901 19.5159 14.8859 19.1418 14.4758C16.2742 11.3326 15.6753 10.6606 15.5679 10.4654C15.4621 10.2732 15.4492 10.2134 15.4497 9.9137C15.4501 9.64571 15.4674 9.54545 15.5352 9.41933C15.8088 8.91032 16.4111 8.70525 16.9269 8.94536ZM24.4644 20.8603C24.9063 21.0641 25.1151 21.336 25.148 21.7506C25.1873 22.2447 24.9985 22.5769 24.5479 22.807L24.2768 22.9454H21.8801H19.4833L19.2877 22.8552C19.0077 22.7261 18.8475 22.5926 18.7281 22.3888C18.6048 22.1785 18.561 21.8066 18.6297 21.5529C18.7243 21.2032 19.1052 20.8734 19.5085 20.7921C19.6034 20.7729 20.7133 20.7602 21.9749 20.7637L24.2688 20.7702L24.4644 20.8603Z" fill="white"/>
<path d="M51.1124 17.3818V21H48.7466V10.4971H52.4527C55.0992 10.4971 56.4224 11.6128 56.4224 13.8442C56.4224 14.8989 56.0416 15.7534 55.2798 16.4077C54.523 17.0571 53.5098 17.3818 52.2403 17.3818H51.1124ZM51.1124 12.3135V15.5874H52.0425C53.3023 15.5874 53.9322 15.0356 53.9322 13.9321C53.9322 12.853 53.3023 12.3135 52.0425 12.3135H51.1124ZM61.2972 21.1831C60.0472 21.1831 59.0634 20.834 58.3456 20.1357C57.6327 19.4326 57.2762 18.4805 57.2762 17.2793C57.2762 16.0391 57.6473 15.0698 58.3895 14.3716C59.1317 13.6685 60.1351 13.3169 61.3998 13.3169C62.6449 13.3169 63.6215 13.6685 64.3295 14.3716C65.0375 15.0698 65.3915 15.9951 65.3915 17.1475C65.3915 18.3926 65.0253 19.3765 64.2929 20.0991C63.5653 20.8218 62.5668 21.1831 61.2972 21.1831ZM61.3558 15.0894C60.809 15.0894 60.3842 15.2773 60.0814 15.6533C59.7787 16.0293 59.6273 16.5615 59.6273 17.25C59.6273 18.6904 60.2084 19.4106 61.3705 19.4106C62.4789 19.4106 63.0331 18.6709 63.0331 17.1914C63.0331 15.79 62.474 15.0894 61.3558 15.0894ZM77.9348 13.5L75.7741 21H73.3425L72.2365 16.6055C72.1633 16.3125 72.1218 15.9927 72.112 15.646H72.0681C72.0339 16.0269 71.9851 16.3369 71.9216 16.5762L70.7351 21H68.3327L66.216 13.5H68.5744L69.6071 18.3926C69.656 18.6221 69.6926 18.9004 69.717 19.2275H69.7609C69.7854 18.8857 69.8293 18.5977 69.8928 18.3633L71.1818 13.5H73.3864L74.5437 18.3926C74.5729 18.5146 74.6071 18.7979 74.6462 19.2422H74.6975C74.7219 18.959 74.7609 18.6758 74.8146 18.3926L75.7888 13.5H77.9348ZM85.8858 17.9092H80.9932C81.0713 18.998 81.7573 19.5425 83.0513 19.5425C83.8765 19.5425 84.6016 19.3472 85.2266 18.9565V20.6265C84.5332 20.9976 83.6323 21.1831 82.5239 21.1831C81.313 21.1831 80.3731 20.8486 79.7041 20.1797C79.0352 19.5059 78.7007 18.5684 78.7007 17.3672C78.7007 16.1221 79.062 15.1357 79.7847 14.4082C80.5073 13.6807 81.396 13.3169 82.4507 13.3169C83.5445 13.3169 84.3892 13.6416 84.9849 14.291C85.5855 14.9404 85.8858 15.8218 85.8858 16.9351V17.9092ZM83.7398 16.4883C83.7398 15.4141 83.3052 14.877 82.4361 14.877C82.065 14.877 81.7427 15.0308 81.4693 15.3384C81.2007 15.646 81.0371 16.0293 80.9785 16.4883H83.7398ZM92.3353 15.5874C92.057 15.436 91.7323 15.3604 91.3612 15.3604C90.8582 15.3604 90.4652 15.5459 90.182 15.917C89.8988 16.2832 89.7572 16.7837 89.7572 17.4185V21H87.4427V13.5H89.7572V14.8916H89.7865C90.1527 13.876 90.8119 13.3682 91.764 13.3682C92.0081 13.3682 92.1986 13.3975 92.3353 13.4561V15.5874ZM93.1964 20.8022V18.9272C93.5773 19.1567 93.9557 19.3276 94.3317 19.4399C94.7126 19.5522 95.0714 19.6084 95.4084 19.6084C95.8185 19.6084 96.1408 19.5522 96.3752 19.4399C96.6144 19.3276 96.734 19.1567 96.734 18.9272C96.734 18.7808 96.6803 18.6587 96.5729 18.561C96.4655 18.4634 96.3263 18.3779 96.1554 18.3047C95.9894 18.2314 95.8063 18.1655 95.6061 18.1069C95.4059 18.0483 95.213 17.9824 95.0275 17.9092C94.7296 17.7969 94.466 17.6772 94.2365 17.5503C94.0119 17.4185 93.8214 17.2671 93.6652 17.0962C93.5138 16.9253 93.3966 16.7275 93.3136 16.5029C93.2355 16.2783 93.1964 16.0122 93.1964 15.7046C93.1964 15.2847 93.2868 14.9233 93.4674 14.6206C93.653 14.3179 93.8971 14.0713 94.1999 13.8809C94.5075 13.6855 94.8566 13.5439 95.2472 13.4561C95.6427 13.3633 96.0529 13.3169 96.4777 13.3169C96.8097 13.3169 97.1466 13.3438 97.4884 13.3975C97.8302 13.4463 98.1671 13.5195 98.4992 13.6172V15.4043C98.2062 15.2334 97.8913 15.1064 97.5544 15.0234C97.2223 14.9355 96.8952 14.8916 96.5729 14.8916C96.4215 14.8916 96.2775 14.9062 96.1408 14.9355C96.0089 14.96 95.8918 14.999 95.7892 15.0527C95.6867 15.1016 95.6061 15.1675 95.5475 15.2505C95.4889 15.3286 95.4596 15.4189 95.4596 15.5215C95.4596 15.6582 95.5036 15.7754 95.5915 15.873C95.6794 15.9707 95.7941 16.0562 95.9357 16.1294C96.0773 16.1978 96.2336 16.2612 96.4045 16.3198C96.5802 16.3735 96.7536 16.4297 96.9245 16.4883C97.2321 16.5957 97.5104 16.7129 97.7594 16.8398C98.0085 16.9668 98.2209 17.1157 98.3966 17.2866C98.5773 17.4575 98.714 17.6577 98.8068 17.8872C98.9045 18.1167 98.9533 18.3901 98.9533 18.7075C98.9533 19.1519 98.8556 19.5327 98.6603 19.8501C98.4699 20.1626 98.2135 20.4189 97.8913 20.6191C97.5739 20.8145 97.2052 20.9561 96.7853 21.0439C96.3703 21.1367 95.9381 21.1831 95.4889 21.1831C94.6637 21.1831 93.8996 21.0562 93.1964 20.8022ZM107.673 21H105.366V16.7373C105.366 15.6387 104.966 15.0894 104.165 15.0894C103.755 15.0894 103.423 15.2432 103.169 15.5508C102.915 15.8584 102.788 16.249 102.788 16.7227V21H100.474V9.89648H102.788V14.6133H102.817C103.384 13.749 104.153 13.3169 105.124 13.3169C106.824 13.3169 107.673 14.3423 107.673 16.3931V21ZM116.43 17.9092H111.537C111.616 18.998 112.302 19.5425 113.596 19.5425C114.421 19.5425 115.146 19.3472 115.771 18.9565V20.6265C115.077 20.9976 114.177 21.1831 113.068 21.1831C111.857 21.1831 110.917 20.8486 110.248 20.1797C109.579 19.5059 109.245 18.5684 109.245 17.3672C109.245 16.1221 109.606 15.1357 110.329 14.4082C111.052 13.6807 111.94 13.3169 112.995 13.3169C114.089 13.3169 114.933 13.6416 115.529 14.291C116.13 14.9404 116.43 15.8218 116.43 16.9351V17.9092ZM114.284 16.4883C114.284 15.4141 113.849 14.877 112.98 14.877C112.609 14.877 112.287 15.0308 112.013 15.3384C111.745 15.646 111.581 16.0293 111.523 16.4883H114.284ZM120.301 21H117.987V9.89648H120.301V21ZM124.744 21H122.43V9.89648H124.744V21Z" fill="black"/>
<path d="M133 0H9C6.23858 0 4 2.23858 4 5V27C4 29.7614 6.23858 32 9 32H133C135.761 32 138 29.7614 138 27V5C138 2.23858 135.761 0 133 0Z" fill="url(#paint0_linear_14_1547)"/>
</g>
<defs>
<filter id="filter0_d_14_1547" x="0" y="0" width="142" height="40" filterUnits="userSpaceOnUse" color-interpolation-filters="sRGB">
<feFlood flood-opacity="0" result="BackgroundImageFix"/>
<feColorMatrix in="SourceAlpha" type="matrix" values="0 0 0 0 0 0 0 0 0 0 0 0 0 0 0 0 0 0 127 0" result="hardAlpha"/>
<feOffset dy="4"/>
<feGaussianBlur stdDeviation="2"/>
<feComposite in2="hardAlpha" operator="out"/>
<feColorMatrix type="matrix" values="0 0 0 0 0 0 0 0 0 0 0 0 0 0 0 0 0 0 0.25 0"/>
<feBlend mode="normal" in2="BackgroundImageFix" result="effect1_dropShadow_14_1547"/>
<feBlend mode="normal" in="SourceGraphic" in2="effect1_dropShadow_14_1547" result="shape"/>
</filter>
<linearGradient id="paint0_linear_14_1547" x1="4" y1="0" x2="4" y2="32" gradientUnits="userSpaceOnUse">
<stop stop-color="#BBBBBB" stop-opacity="0.1"/>
<stop offset="1" stop-opacity="0.1"/>
</linearGradient>
</defs>
</svg>
