<svg width="115" height="40" viewBox="0 0 115 40" fill="none" xmlns="http://www.w3.org/2000/svg">
<g filter="url(#filter0_d_2_865)">
<path d="M106 0H35V32H106C108.761 32 111 29.7614 111 27V5C111 2.23858 108.761 0 106 0Z" fill="#397FB9"/>
<path d="M35 0H9C6.23858 0 4 2.23858 4 5V27C4 29.7614 6.23858 32 9 32H35V0Z" fill="white"/>
<path d="M50.8923 18.3818V22H48.5266V11.4971H52.2326C54.8791 11.4971 56.2023 12.6128 56.2023 14.8442C56.2023 15.8989 55.8215 16.7534 55.0598 17.4077C54.3029 18.0571 53.2897 18.3818 52.0202 18.3818H50.8923ZM50.8923 13.3135V16.5874H51.8225C53.0822 16.5874 53.7121 16.0356 53.7121 14.9321C53.7121 13.853 53.0822 13.3135 51.8225 13.3135H50.8923ZM65.0982 14.5L62.0513 22.6006C61.3189 24.5488 60.2154 25.5229 58.7407 25.5229C58.1792 25.5229 57.7178 25.4595 57.3565 25.3325V23.4868C57.6641 23.6675 57.9986 23.7578 58.3599 23.7578C58.9556 23.7578 59.3706 23.4771 59.605 22.9155L60.0005 21.9854L56.9536 14.5H59.5171L60.916 19.063C61.0039 19.3462 61.0723 19.6807 61.1211 20.0664H61.1504C61.1944 19.7832 61.2749 19.4536 61.3921 19.0776L62.8057 14.5H65.0982ZM70.7713 21.9121C70.4295 22.0928 69.9144 22.1831 69.2259 22.1831C67.5951 22.1831 66.7796 21.3359 66.7796 19.6416V16.2065H65.5638V14.5H66.7796V12.8813L69.0868 12.2222V14.5H70.7713V16.2065H69.0868V19.2388C69.0868 20.02 69.3968 20.4106 70.0169 20.4106C70.2611 20.4106 70.5125 20.3398 70.7713 20.1982V21.9121ZM79.4621 22H77.1549V17.7373C77.1549 16.6387 76.7546 16.0894 75.9538 16.0894C75.5436 16.0894 75.2116 16.2432 74.9577 16.5508C74.7038 16.8584 74.5768 17.249 74.5768 17.7227V22H72.2624V10.8965H74.5768V15.6133H74.6061C75.1725 14.749 75.9416 14.3169 76.9132 14.3169C78.6125 14.3169 79.4621 15.3423 79.4621 17.3931V22ZM85.0547 22.1831C83.8047 22.1831 82.8208 21.834 82.103 21.1357C81.3901 20.4326 81.0337 19.4805 81.0337 18.2793C81.0337 17.0391 81.4048 16.0698 82.147 15.3716C82.8891 14.6685 83.8926 14.3169 85.1572 14.3169C86.4023 14.3169 87.3789 14.6685 88.0869 15.3716C88.7949 16.0698 89.1489 16.9951 89.1489 18.1475C89.1489 19.3926 88.7827 20.3765 88.0503 21.0991C87.3227 21.8218 86.3242 22.1831 85.0547 22.1831ZM85.1133 16.0894C84.5664 16.0894 84.1416 16.2773 83.8388 16.6533C83.5361 17.0293 83.3847 17.5615 83.3847 18.25C83.3847 19.6904 83.9658 20.4106 85.1279 20.4106C86.2363 20.4106 86.7905 19.6709 86.7905 18.1914C86.7905 16.79 86.2314 16.0894 85.1133 16.0894ZM98.074 22H95.7669V17.8325C95.7669 16.6704 95.3519 16.0894 94.5218 16.0894C94.1214 16.0894 93.7918 16.2432 93.533 16.5508C93.2742 16.8584 93.1448 17.249 93.1448 17.7227V22H90.8304V14.5H93.1448V15.6865H93.1741C93.7259 14.7734 94.5291 14.3169 95.5838 14.3169C97.2439 14.3169 98.074 15.3472 98.074 17.4077V22Z" fill="white"/>
<path d="M106 0H9C6.23858 0 4 2.23858 4 5V27C4 29.7614 6.23858 32 9 32H106C108.761 32 111 29.7614 111 27V5C111 2.23858 108.761 0 106 0Z" fill="url(#paint0_linear_2_865)"/>
<g clip-path="url(#clip0_2_865)">
<path d="M20.3941 4.00684C14.0628 4.00684 14.4582 6.65297 14.4582 6.65297L14.4653 9.39434H20.5071V10.2174H12.0655C12.0655 10.2174 8.01411 9.77462 8.01411 15.9315C8.01411 22.0883 11.5503 21.8699 11.5503 21.8699H13.6606V19.0129C13.6606 19.0129 13.5469 15.6049 17.1403 15.6049H23.1327C23.1327 15.6049 26.4994 15.6574 26.4994 12.469V7.19716C26.4994 7.19716 27.0106 4.00684 20.3941 4.00684ZM17.0627 5.85029C17.6638 5.85029 18.1496 6.31853 18.1496 6.89786C18.1496 7.47719 17.6638 7.94543 17.0627 7.94543C16.4616 7.94543 15.9757 7.47719 15.9757 6.89786C15.9757 6.31853 16.4616 5.85029 17.0627 5.85029Z" fill="url(#paint1_linear_2_865)"/>
<path d="M20.5739 27.9178C26.9052 27.9178 26.5098 25.2716 26.5098 25.2716L26.5028 22.5303H20.461V21.7072H28.9026C28.9026 21.7072 32.9539 22.15 32.9539 15.9932C32.9539 9.83633 29.4178 10.0547 29.4178 10.0547H27.3074V12.9117C27.3074 12.9117 27.4212 16.3197 23.8277 16.3197H17.8354C17.8354 16.3197 14.4686 16.2672 14.4686 19.4556V24.7275C14.4686 24.7275 13.9575 27.9178 20.5739 27.9178ZM23.9054 26.0743C23.3043 26.0743 22.8184 25.6061 22.8184 25.0268C22.8184 24.4474 23.3043 23.9792 23.9054 23.9792C24.5065 23.9792 24.9923 24.4474 24.9923 25.0268C24.9923 25.6061 24.5065 26.0743 23.9054 26.0743Z" fill="url(#paint2_linear_2_865)"/>
</g>
</g>
<defs>
<filter id="filter0_d_2_865" x="0" y="0" width="115" height="40" filterUnits="userSpaceOnUse" color-interpolation-filters="sRGB">
<feFlood flood-opacity="0" result="BackgroundImageFix"/>
<feColorMatrix in="SourceAlpha" type="matrix" values="0 0 0 0 0 0 0 0 0 0 0 0 0 0 0 0 0 0 127 0" result="hardAlpha"/>
<feOffset dy="4"/>
<feGaussianBlur stdDeviation="2"/>
<feComposite in2="hardAlpha" operator="out"/>
<feColorMatrix type="matrix" values="0 0 0 0 0 0 0 0 0 0 0 0 0 0 0 0 0 0 0.25 0"/>
<feBlend mode="normal" in2="BackgroundImageFix" result="effect1_dropShadow_2_865"/>
<feBlend mode="normal" in="SourceGraphic" in2="effect1_dropShadow_2_865" result="shape"/>
</filter>
<linearGradient id="paint0_linear_2_865" x1="4" y1="0" x2="4" y2="32" gradientUnits="userSpaceOnUse">
<stop stop-color="#BBBBBB" stop-opacity="0.1"/>
<stop offset="1" stop-opacity="0.1"/>
</linearGradient>
<linearGradient id="paint1_linear_2_865" x1="247.691" y1="219.079" x2="1438.46" y2="1442.3" gradientUnits="userSpaceOnUse">
<stop stop-color="#387EB8"/>
<stop offset="1" stop-color="#366994"/>
</linearGradient>
<linearGradient id="paint2_linear_2_865" x1="368.213" y1="377.682" x2="1649.16" y2="1634.12" gradientUnits="userSpaceOnUse">
<stop stop-color="#FFE052"/>
<stop offset="1" stop-color="#FFC331"/>
</linearGradient>
<clipPath id="clip0_2_865">
<rect width="25" height="24" fill="white" transform="translate(8 4)"/>
</clipPath>
</defs>
</svg>
