<svg width="200" height="40" viewBox="0 0 200 40" fill="none" xmlns="http://www.w3.org/2000/svg">
<g filter="url(#filter0_d_11_408)">
<path d="M191 0H35V32H191C193.761 32 196 29.7614 196 27V5C196 2.23858 193.761 0 191 0Z" fill="#128ACC"/>
<path d="M35 0H9C6.23858 0 4 2.23858 4 5V27C4 29.7614 6.23858 32 9 32H35V0Z" fill="#1A1E22"/>
<path d="M30.0627 8.9435V23.1588C30.0627 23.8591 29.6271 24.4821 28.971 24.7137L24.1075 26.9966L24.5487 21.0138V11.0885L24.1075 5.10571L28.971 7.38854C29.6271 7.62013 30.0627 8.24322 30.0627 8.9435Z" fill="#218CC8"/>
<path d="M10.7633 21.5078L24.5485 11.0884V5.76902C24.5485 5.10843 23.7313 4.79965 23.2941 5.29481L8.36913 18.9399C7.87287 19.3976 7.90099 20.19 8.42813 20.6118C8.42813 20.6118 9.1582 21.2911 9.42232 21.4797C9.82816 21.7692 10.3614 21.8023 10.7633 21.5078Z" fill="#218CC8"/>
<path d="M10.7633 10.5937L24.5485 21.0131V26.3325C24.5485 26.9931 23.7313 27.3019 23.2941 26.8067L8.36913 13.1616C7.87287 12.7039 7.90099 11.9116 8.42813 11.4897C8.42813 11.4897 9.1582 10.8104 9.42232 10.6218C9.82816 10.3323 10.3614 10.2992 10.7633 10.5937Z" fill="#218CC8"/>
<path d="M57.2952 11.4971L53.677 22H50.9964L47.4221 11.4971H49.971L52.1609 18.8066C52.2781 19.2021 52.3489 19.5513 52.3733 19.854H52.4173C52.4514 19.5269 52.5271 19.168 52.6443 18.7773L54.8196 11.4971H57.2952ZM59.9435 13.3135C59.5528 13.3135 59.233 13.1987 58.984 12.9692C58.735 12.7349 58.6105 12.4492 58.6105 12.1123C58.6105 11.7656 58.735 11.4824 58.984 11.2627C59.233 11.043 59.5528 10.9331 59.9435 10.9331C60.339 10.9331 60.6588 11.043 60.9029 11.2627C61.152 11.4824 61.2765 11.7656 61.2765 12.1123C61.2765 12.4639 61.152 12.752 60.9029 12.9766C60.6588 13.2012 60.339 13.3135 59.9435 13.3135ZM61.086 22H58.7716V14.5H61.086V22ZM62.7236 21.8022V19.9272C63.1044 20.1567 63.4828 20.3276 63.8588 20.4399C64.2397 20.5522 64.5986 20.6084 64.9355 20.6084C65.3456 20.6084 65.6679 20.5522 65.9023 20.4399C66.1415 20.3276 66.2612 20.1567 66.2612 19.9272C66.2612 19.7808 66.2074 19.6587 66.1 19.561C65.9926 19.4634 65.8534 19.3779 65.6825 19.3047C65.5165 19.2314 65.3334 19.1655 65.1332 19.1069C64.933 19.0483 64.7402 18.9824 64.5546 18.9092C64.2568 18.7969 63.9931 18.6772 63.7636 18.5503C63.539 18.4185 63.3486 18.2671 63.1923 18.0962C63.0409 17.9253 62.9238 17.7275 62.8407 17.5029C62.7626 17.2783 62.7236 17.0122 62.7236 16.7046C62.7236 16.2847 62.8139 15.9233 62.9946 15.6206C63.1801 15.3179 63.4242 15.0713 63.727 14.8809C64.0346 14.6855 64.3837 14.5439 64.7743 14.4561C65.1698 14.3633 65.58 14.3169 66.0048 14.3169C66.3368 14.3169 66.6738 14.3438 67.0155 14.3975C67.3573 14.4463 67.6943 14.5195 68.0263 14.6172V16.4043C67.7333 16.2334 67.4184 16.1064 67.0815 16.0234C66.7494 15.9355 66.4223 15.8916 66.1 15.8916C65.9487 15.8916 65.8046 15.9062 65.6679 15.9355C65.5361 15.96 65.4189 15.999 65.3163 16.0527C65.2138 16.1016 65.1332 16.1675 65.0746 16.2505C65.016 16.3286 64.9867 16.4189 64.9867 16.5215C64.9867 16.6582 65.0307 16.7754 65.1186 16.873C65.2065 16.9707 65.3212 17.0562 65.4628 17.1294C65.6044 17.1978 65.7607 17.2612 65.9316 17.3198C66.1073 17.3735 66.2807 17.4297 66.4516 17.4883C66.7592 17.5957 67.0375 17.7129 67.2865 17.8398C67.5356 17.9668 67.748 18.1157 67.9238 18.2866C68.1044 18.4575 68.2411 18.6577 68.3339 18.8872C68.4316 19.1167 68.4804 19.3901 68.4804 19.7075C68.4804 20.1519 68.3827 20.5327 68.1874 20.8501C67.997 21.1626 67.7406 21.4189 67.4184 21.6191C67.101 21.8145 66.7323 21.9561 66.3124 22.0439C65.8974 22.1367 65.4653 22.1831 65.016 22.1831C64.1908 22.1831 63.4267 22.0562 62.7236 21.8022ZM77.1272 22H74.8201V20.8574H74.7834C74.2122 21.7412 73.448 22.1831 72.491 22.1831C70.7527 22.1831 69.8835 21.1309 69.8835 19.0264V14.5H72.1907V18.8213C72.1907 19.8809 72.6106 20.4106 73.4504 20.4106C73.8655 20.4106 74.1975 20.2666 74.4465 19.9785C74.6955 19.6855 74.8201 19.29 74.8201 18.792V14.5H77.1272V22ZM85.503 22H83.313V20.9233H83.2838C82.7808 21.7632 82.0362 22.1831 81.0499 22.1831C80.3223 22.1831 79.7486 21.978 79.3287 21.5679C78.9136 21.1528 78.7061 20.6011 78.7061 19.9126C78.7061 18.4575 79.5679 17.6177 81.2916 17.3931L83.3277 17.1221C83.3277 16.3018 82.8834 15.8916 81.9947 15.8916C81.1011 15.8916 80.2515 16.1577 79.4459 16.6899V14.9468C79.7681 14.7808 80.2076 14.6343 80.7642 14.5073C81.3257 14.3804 81.836 14.3169 82.295 14.3169C84.4337 14.3169 85.503 15.3838 85.503 17.5176V22ZM83.3277 18.9531V18.4478L81.9654 18.6235C81.2134 18.7212 80.8375 19.0605 80.8375 19.6416C80.8375 19.9053 80.9278 20.1226 81.1085 20.2935C81.294 20.4595 81.543 20.5425 81.8555 20.5425C82.2901 20.5425 82.6441 20.3936 82.9175 20.0957C83.191 19.793 83.3277 19.4121 83.3277 18.9531ZM89.8285 22H87.514V10.8965H89.8285V22ZM96.2896 21.5972V19.2534C96.7144 19.6099 97.1758 19.8784 97.6738 20.0591C98.1719 20.2349 98.6748 20.3228 99.1826 20.3228C99.4805 20.3228 99.7393 20.2959 99.959 20.2422C100.184 20.1885 100.369 20.1152 100.516 20.0225C100.667 19.9248 100.779 19.8125 100.853 19.6855C100.926 19.5537 100.962 19.4121 100.962 19.2607C100.962 19.0557 100.904 18.8726 100.787 18.7114C100.669 18.5503 100.508 18.4014 100.303 18.2646C100.103 18.1279 99.8638 17.9961 99.5855 17.8691C99.3071 17.7422 99.0069 17.6128 98.6846 17.481C97.8643 17.1392 97.2515 16.7217 96.8462 16.2285C96.4458 15.7354 96.2456 15.1396 96.2456 14.4414C96.2456 13.8945 96.3555 13.4258 96.5752 13.0352C96.7949 12.6396 97.0928 12.3149 97.4688 12.061C97.8496 11.8071 98.2891 11.6216 98.7871 11.5044C99.2852 11.3823 99.8125 11.3213 100.369 11.3213C100.916 11.3213 101.399 11.3555 101.819 11.4238C102.244 11.4873 102.635 11.5874 102.991 11.7241V13.9141C102.815 13.792 102.623 13.6846 102.413 13.5918C102.208 13.499 101.995 13.4233 101.775 13.3647C101.556 13.3013 101.336 13.2549 101.116 13.2256C100.901 13.1963 100.696 13.1816 100.501 13.1816C100.232 13.1816 99.9883 13.2085 99.7686 13.2622C99.5488 13.311 99.3633 13.3818 99.2119 13.4746C99.0606 13.5674 98.9434 13.6797 98.8604 13.8115C98.7774 13.9385 98.7359 14.0825 98.7359 14.2437C98.7359 14.4194 98.7822 14.5781 98.875 14.7197C98.9678 14.8564 99.0996 14.9883 99.2705 15.1152C99.4414 15.2373 99.6489 15.3594 99.8931 15.4814C100.137 15.5986 100.413 15.7207 100.721 15.8477C101.141 16.0234 101.517 16.2114 101.849 16.4116C102.186 16.6069 102.474 16.8291 102.713 17.0781C102.952 17.3271 103.135 17.6128 103.262 17.9351C103.389 18.2524 103.453 18.6235 103.453 19.0483C103.453 19.6343 103.34 20.1274 103.116 20.5278C102.896 20.9233 102.596 21.2456 102.215 21.4946C101.834 21.7388 101.39 21.9146 100.882 22.022C100.379 22.1294 99.8467 22.1831 99.2852 22.1831C98.709 22.1831 98.1597 22.1343 97.6372 22.0366C97.1196 21.939 96.6704 21.7925 96.2896 21.5972ZM109.551 21.9121C109.209 22.0928 108.694 22.1831 108.005 22.1831C106.374 22.1831 105.559 21.3359 105.559 19.6416V16.2065H104.343V14.5H105.559V12.8813L107.866 12.2222V14.5H109.551V16.2065H107.866V19.2388C107.866 20.02 108.176 20.4106 108.796 20.4106C109.04 20.4106 109.292 20.3398 109.551 20.1982V21.9121ZM118.168 22H115.861V20.8574H115.824C115.253 21.7412 114.489 22.1831 113.532 22.1831C111.794 22.1831 110.924 21.1309 110.924 19.0264V14.5H113.232V18.8213C113.232 19.8809 113.652 20.4106 114.491 20.4106C114.906 20.4106 115.238 20.2666 115.487 19.9785C115.736 19.6855 115.861 19.29 115.861 18.792V14.5H118.168V22ZM127.643 22H125.328V20.9673H125.299C124.771 21.7778 123.998 22.1831 122.977 22.1831C122.04 22.1831 121.285 21.8535 120.714 21.1943C120.143 20.5303 119.857 19.605 119.857 18.4185C119.857 17.1782 120.172 16.1846 120.802 15.4375C121.432 14.6904 122.257 14.3169 123.277 14.3169C124.244 14.3169 124.918 14.6636 125.299 15.3569H125.328V10.8965H127.643V22ZM125.372 18.3525V17.7886C125.372 17.3003 125.23 16.895 124.947 16.5728C124.664 16.2505 124.295 16.0894 123.841 16.0894C123.329 16.0894 122.928 16.292 122.64 16.6973C122.352 17.0977 122.208 17.6494 122.208 18.3525C122.208 19.0117 122.347 19.5195 122.625 19.876C122.904 20.2324 123.29 20.4106 123.783 20.4106C124.251 20.4106 124.632 20.2227 124.925 19.8467C125.223 19.4707 125.372 18.9727 125.372 18.3525ZM130.943 13.3135C130.552 13.3135 130.232 13.1987 129.983 12.9692C129.734 12.7349 129.61 12.4492 129.61 12.1123C129.61 11.7656 129.734 11.4824 129.983 11.2627C130.232 11.043 130.552 10.9331 130.943 10.9331C131.338 10.9331 131.658 11.043 131.902 11.2627C132.151 11.4824 132.276 11.7656 132.276 12.1123C132.276 12.4639 132.151 12.752 131.902 12.9766C131.658 13.2012 131.338 13.3135 130.943 13.3135ZM132.085 22H129.771V14.5H132.085V22ZM137.788 22.1831C136.538 22.1831 135.554 21.834 134.836 21.1357C134.123 20.4326 133.767 19.4805 133.767 18.2793C133.767 17.0391 134.138 16.0698 134.88 15.3716C135.622 14.6685 136.626 14.3169 137.89 14.3169C139.135 14.3169 140.112 14.6685 140.82 15.3716C141.528 16.0698 141.882 16.9951 141.882 18.1475C141.882 19.3926 141.516 20.3765 140.783 21.0991C140.056 21.8218 139.057 22.1831 137.788 22.1831ZM137.846 16.0894C137.299 16.0894 136.875 16.2773 136.572 16.6533C136.269 17.0293 136.118 17.5615 136.118 18.25C136.118 19.6904 136.699 20.4106 137.861 20.4106C138.969 20.4106 139.524 19.6709 139.524 18.1914C139.524 16.79 138.964 16.0894 137.846 16.0894ZM155.909 21.6265C155.142 21.9976 154.141 22.1831 152.906 22.1831C151.295 22.1831 150.028 21.7095 149.105 20.7622C148.182 19.8149 147.72 18.5527 147.72 16.9756C147.72 15.2959 148.238 13.9336 149.273 12.8887C150.313 11.8438 151.661 11.3213 153.316 11.3213C154.342 11.3213 155.206 11.4507 155.909 11.7095V13.9873C155.206 13.5674 154.405 13.3574 153.507 13.3574C152.52 13.3574 151.724 13.6675 151.119 14.2876C150.513 14.9077 150.211 15.7476 150.211 16.8071C150.211 17.8228 150.496 18.6333 151.068 19.2388C151.639 19.8394 152.408 20.1396 153.375 20.1396C154.298 20.1396 155.142 19.915 155.909 19.4658V21.6265ZM161.531 22.1831C160.281 22.1831 159.297 21.834 158.579 21.1357C157.866 20.4326 157.51 19.4805 157.51 18.2793C157.51 17.0391 157.881 16.0698 158.623 15.3716C159.365 14.6685 160.369 14.3169 161.633 14.3169C162.878 14.3169 163.855 14.6685 164.563 15.3716C165.271 16.0698 165.625 16.9951 165.625 18.1475C165.625 19.3926 165.259 20.3765 164.526 21.0991C163.799 21.8218 162.8 22.1831 161.531 22.1831ZM161.589 16.0894C161.043 16.0894 160.618 16.2773 160.315 16.6533C160.012 17.0293 159.861 17.5615 159.861 18.25C159.861 19.6904 160.442 20.4106 161.604 20.4106C162.712 20.4106 163.267 19.6709 163.267 18.1914C163.267 16.79 162.708 16.0894 161.589 16.0894ZM174.645 22H172.331V20.9673H172.302C171.774 21.7778 171 22.1831 169.98 22.1831C169.042 22.1831 168.288 21.8535 167.717 21.1943C167.145 20.5303 166.86 19.605 166.86 18.4185C166.86 17.1782 167.175 16.1846 167.805 15.4375C168.434 14.6904 169.26 14.3169 170.28 14.3169C171.247 14.3169 171.921 14.6636 172.302 15.3569H172.331V10.8965H174.645V22ZM172.375 18.3525V17.7886C172.375 17.3003 172.233 16.895 171.95 16.5728C171.667 16.2505 171.298 16.0894 170.844 16.0894C170.331 16.0894 169.931 16.292 169.643 16.6973C169.355 17.0977 169.211 17.6494 169.211 18.3525C169.211 19.0117 169.35 19.5195 169.628 19.876C169.907 20.2324 170.292 20.4106 170.786 20.4106C171.254 20.4106 171.635 20.2227 171.928 19.8467C172.226 19.4707 172.375 18.9727 172.375 18.3525ZM183.512 18.9092H178.619C178.697 19.998 179.384 20.5425 180.677 20.5425C181.503 20.5425 182.228 20.3472 182.853 19.9565V21.6265C182.159 21.9976 181.259 22.1831 180.15 22.1831C178.939 22.1831 177.999 21.8486 177.33 21.1797C176.661 20.5059 176.327 19.5684 176.327 18.3672C176.327 17.1221 176.688 16.1357 177.411 15.4082C178.134 14.6807 179.022 14.3169 180.077 14.3169C181.171 14.3169 182.015 14.6416 182.611 15.291C183.212 15.9404 183.512 16.8218 183.512 17.9351V18.9092ZM181.366 17.4883C181.366 16.4141 180.931 15.877 180.062 15.877C179.691 15.877 179.369 16.0308 179.095 16.3384C178.827 16.646 178.663 17.0293 178.605 17.4883H181.366Z" fill="white"/>
<path d="M191 0H9C6.23858 0 4 2.23858 4 5V27C4 29.7614 6.23858 32 9 32H191C193.761 32 196 29.7614 196 27V5C196 2.23858 193.761 0 191 0Z" fill="url(#paint0_linear_11_408)"/>
</g>
<defs>
<filter id="filter0_d_11_408" x="0" y="0" width="200" height="40" filterUnits="userSpaceOnUse" color-interpolation-filters="sRGB">
<feFlood flood-opacity="0" result="BackgroundImageFix"/>
<feColorMatrix in="SourceAlpha" type="matrix" values="0 0 0 0 0 0 0 0 0 0 0 0 0 0 0 0 0 0 127 0" result="hardAlpha"/>
<feOffset dy="4"/>
<feGaussianBlur stdDeviation="2"/>
<feComposite in2="hardAlpha" operator="out"/>
<feColorMatrix type="matrix" values="0 0 0 0 0 0 0 0 0 0 0 0 0 0 0 0 0 0 0.25 0"/>
<feBlend mode="normal" in2="BackgroundImageFix" result="effect1_dropShadow_11_408"/>
<feBlend mode="normal" in="SourceGraphic" in2="effect1_dropShadow_11_408" result="shape"/>
</filter>
<linearGradient id="paint0_linear_11_408" x1="4" y1="0" x2="4" y2="32" gradientUnits="userSpaceOnUse">
<stop stop-color="#BBBBBB" stop-opacity="0.1"/>
<stop offset="1" stop-opacity="0.1"/>
</linearGradient>
</defs>
</svg>
